<svg xmlns="http://www.w3.org/2000/svg" fill="none" viewBox="-0.75 -0.75 24 24" id="Chat-Bubble-Text-Square--Streamline-Plump" height="24" width="24">
  <desc>
    Chat Bubble Text Square Streamline Icon: https://streamlinehq.com
  </desc>
  <g id="chat-bubble-text-square--messages-message-bubble-text-square-chat">
    <path id="Union" stroke="#000000" stroke-linejoin="round" d="M3.8662499999999995 18.06421875c-1.1953125 -0.08296875 -2.12765625 -0.97546875 -2.2321874999999998 -2.16890625C1.51875 14.5875 1.40625 12.602343750000001 1.40625 9.84375s0.11249999999999999 -4.74421875 0.2278125 -6.0515625c0.10453125 -1.1934375 1.036875 -2.0859375 2.2321874999999998 -2.16890625C5.37890625 1.5178125 7.7943750000000005 1.40625 11.25 1.40625c3.4551562500000004 0 5.87109375 0.1115625 7.38375 0.21703125 1.1953125 0.08296875 2.12765625 0.97546875 2.2321874999999998 2.16890625C20.98125 5.1000000000000005 21.09375 7.08515625 21.09375 9.84375s-0.11249999999999999 4.74421875 -0.2278125 6.0515625c-0.10453125 1.1934375 -1.036875 2.0859375 -2.2321874999999998 2.16890625 -1.40765625 0.0984375 -3.5971875 0.2015625 -6.67875 0.215625l-3.3759375 2.89359375C7.970625000000001 21.694687499999997 7.03125 21.2625 7.03125 20.461875v-2.24296875a83.8828125 83.8828125 0 0 1 -3.165 -0.1546875Z" stroke-width="1.5"/>
    <path id="Rectangle 1098" stroke="#000000" stroke-linejoin="round" d="M15.4209375 5.68265625c0.54609375 0.0225 0.961875 0.4040625 0.9796874999999999 0.950625a12.4903125 12.4903125 0 0 1 -0.00046875 0.8015625c-0.0178125 0.54140625 -0.4284375 0.91875 -0.969375 0.9421875 -0.71484375 0.030468750000000003 -1.97953125 0.06046875 -4.18078125 0.06046875 -2.1909375 0 -3.45421875 -0.02859375 -4.1709375 -0.05765625 -0.54609375 -0.0225 -0.961875 -0.4040625 -0.9796874999999999 -0.950625a12.4903125 12.4903125 0 0 1 0 -0.7959375c0.0178125 -0.5465625 0.43359375 -0.928125 0.9796874999999999 -0.950625C7.796250000000001 5.65359375 9.0590625 5.625 11.25 5.625c2.1909375 0 3.45421875 0.02859375 4.1709375 0.05765625Z" stroke-width="1.5"/>
    <path id="Rectangle 1099" stroke="#000000" stroke-linejoin="round" d="M11.714062499999999 11.29078125c0.541875 0.024843749999999998 0.9271874999999999 0.42 0.9384374999999999 0.9632812500000001a19.483593749999997 19.483593749999997 0 0 1 0 0.81234375c-0.01171875 0.53671875 -0.39046875 0.9271874999999999 -0.92625 0.9529687499999999 -0.48375 0.0234375 -1.22484375 0.043125 -2.35125 0.043125 -1.11703125 0 -1.85484375 -0.01875 -2.3390625000000003 -0.04078125 -0.541875 -0.024843749999999998 -0.9271874999999999 -0.42 -0.9384374999999999 -0.9632812500000001a19.483593749999997 19.483593749999997 0 0 1 0 -0.804375c0.01125 -0.54328125 0.3965625 -0.9384374999999999 0.93890625 -0.9632812500000001C7.520156249999999 11.268281250000001 8.2584375 11.25 9.375 11.25c1.11703125 0 1.85484375 0.01875 2.3390625000000003 0.04078125Z" stroke-width="1.5"/>
  </g>
</svg>