<svg xmlns="http://www.w3.org/2000/svg" fill="none" viewBox="-0.75 -0.75 24 24" id="Deepfake-Technology-1--Streamline-Plump" height="24" width="24">
  <desc>
    Deepfake Technology 1 Streamline Icon: https://streamlinehq.com
  </desc>
  <g id="deepfake-technology-1--automated-face-head-fake-generated-artificial-intelligence-ai">
    <path id="Union" stroke="#000000" stroke-linecap="round" stroke-linejoin="round" d="M15 20.859375v-2.420015625l2.1879375000000003 0.368953125c0.81121875 0.136828125 1.56609375 -0.448875 1.635140625 -1.268625l0.26896875 -3.193265625c0.867 -0.19453125 1.49109375 -0.508078125 1.8950624999999999 -0.7693125 0.36290625 -0.23465625 0.4051875 -0.708046875 0.163265625 -1.066171875l-1.9434375 -2.876671875C18.97640625 5.3101875000000005 15.397171874999998 1.875 11.015625 1.875v18.984375" stroke-width="1.5"/>
    <path id="Ellipse 1522" stroke="#000000" d="M1.40625 11.25a1.40625 1.40625 0 1 0 2.8125 0 1.40625 1.40625 0 1 0 -2.8125 0" stroke-width="1.5"/>
    <path id="Ellipse 1523" stroke="#000000" d="M3.75 4.21875a1.40625 1.40625 0 1 0 2.8125 0 1.40625 1.40625 0 1 0 -2.8125 0" stroke-width="1.5"/>
    <path id="Ellipse 1524" stroke="#000000" d="M3.28125 18.75a1.40625 1.40625 0 1 0 2.8125 0 1.40625 1.40625 0 1 0 -2.8125 0" stroke-width="1.5"/>
    <path id="Vector 2716" stroke="#000000" stroke-linecap="round" stroke-linejoin="round" d="M4.21875 11.25h6.796875" stroke-width="1.5"/>
    <path id="Vector 2718" stroke="#000000" stroke-linecap="round" stroke-linejoin="round" d="M11.015625 7.5H8.4375l-2.109375 -2.109375" stroke-width="1.5"/>
    <path id="Vector 2719" stroke="#000000" stroke-linecap="round" stroke-linejoin="round" d="M11.015625 15.46875H7.96875l-2.109375 2.109375" stroke-width="1.5"/>
  </g>
</svg>