<svg xmlns="http://www.w3.org/2000/svg" fill="none" viewBox="-0.75 -0.75 24 24" id="Star-Medal--Streamline-Plump" height="24" width="24">
  <desc>
    Star Medal Streamline Icon: https://streamlinehq.com
  </desc>
  <g id="star-medal--ribbon-reward-like-social-rating-media">
    <path id="Subtract" stroke="#000000" stroke-linecap="round" stroke-linejoin="round" d="M6.5625 1.875s1.40625 -0.46875 4.6875 -0.46875 4.6875 0.46875 4.6875 0.46875M8.833593749999999 6.62953125A37.799062500000005 37.799062500000005 0 0 1 11.25 6.5625c1.0026562499999998 0 1.7934375 0.02625 2.41640625 0.06703125" stroke-width="1.5"/>
    <path id="Ellipse 18" stroke="#000000" stroke-linecap="round" stroke-linejoin="round" d="M5.625 15.46875a5.625 5.625 0 1 0 11.25 0 5.625 5.625 0 1 0 -11.25 0" stroke-width="1.5"/>
    <path id="Subtract_2" stroke="#000000" stroke-linecap="round" stroke-linejoin="round" d="M10.62328125 9.8784375C8.12671875 5.604843750000001 6.5625 1.875 6.5625 1.875S3.2109375 4.025625 1.678125 7.317187499999999c-0.1875 0.403125 -0.13171875000000002 0.868125 0.11953125 1.2346875 0.6778124999999999 0.988125 2.18015625 3.09375 4.0785937500000005 5.247187500000001m10.74609375 0c1.8984375 -2.15296875 3.40125 -4.2590625 4.0790625 -5.247187500000001 0.25125000000000003 -0.3665625 0.30703125000000003 -0.8315625 0.11953125 -1.2346875C19.2890625 4.025625 15.93703125 1.875 15.93703125 1.875s-1.56375 3.72984375 -4.0603125 8.0034375" stroke-width="1.5"/>
    <path id="Star 4" stroke="#000000" stroke-linecap="round" stroke-linejoin="round" d="M10.7296875 12.4875a0.5859375 0.5859375 0 0 1 1.0406250000000001 0l0.7078125 1.365 1.5093750000000001 0.2971875a0.5859375 0.5859375 0 0 1 0.32249999999999995 0.9665624999999999l-1.0725 1.19296875 0.19640625 1.59140625a0.5859375 0.5859375 0 0 1 -0.84328125 0.5962500000000001L11.25 17.827499999999997l-1.340625 0.6693749999999999a0.5859375 0.5859375 0 0 1 -0.84375 -0.5962500000000001l0.196875 -1.59140625 -1.0725 -1.19296875a0.5859375 0.5859375 0 0 1 0.32249999999999995 -0.9665624999999999l1.5093750000000001 -0.2971875 0.7078125 -1.36546875Z" stroke-width="1.5"/>
  </g>
</svg>